<?xml version="1.0" standalone="no"?>
<!DOCTYPE svg PUBLIC "-//W3C//DTD SVG 20010904//EN"
 "http://www.w3.org/TR/2001/REC-SVG-20010904/DTD/svg10.dtd">
<svg version="1.0" xmlns="http://www.w3.org/2000/svg"
 width="3000.000000pt" height="3000.000000pt" viewBox="0 0 3000.000000 3000.000000"
 preserveAspectRatio="xMidYMid meet">
<metadata>
Created by potrace 1.14, written by Peter Selinger 2001-2017
</metadata>
<g transform="translate(0.000000,3000.000000) scale(0.100000,-0.100000)"
fill="#000000" stroke="none">
<path d="M21985 27024 c-55 -13 -107 -26 -115 -28 -16 -5 -381 -94 -413 -101
-10 -2 -27 -7 -37 -10 -10 -3 -27 -7 -37 -9 -10 -2 -65 -16 -123 -30 -566
-137 -734 -178 -785 -192 -33 -9 -71 -18 -85 -20 -14 -3 -43 -10 -65 -16 -22
-5 -47 -11 -55 -13 -8 -2 -89 -22 -180 -45 -91 -23 -172 -43 -180 -45 -83 -19
-231 -55 -470 -114 -400 -98 -622 -152 -640 -156 -8 -2 -33 -8 -55 -13 -22 -6
-51 -13 -65 -16 -14 -3 -126 -31 -250 -61 -124 -31 -233 -58 -243 -60 -10 -2
-26 -6 -35 -9 -9 -3 -28 -7 -42 -10 -14 -3 -70 -17 -125 -30 -130 -33 -754
-186 -780 -192 -11 -2 -58 -13 -105 -25 -47 -11 -93 -22 -102 -24 -9 -2 -43
-11 -75 -19 -69 -19 -706 -174 -737 -180 -11 -2 -48 -11 -81 -20 -33 -9 -181
-46 -330 -82 -148 -36 -353 -85 -455 -110 -102 -25 -248 -61 -325 -80 -77 -20
-151 -38 -165 -40 -14 -3 -97 -23 -185 -46 -88 -22 -171 -42 -185 -44 -14 -3
-39 -9 -57 -15 -17 -5 -42 -12 -55 -14 -54 -11 -68 -14 -76 -18 -4 -3 -23 -8
-42 -11 -19 -3 -67 -14 -105 -25 -39 -11 -81 -22 -95 -25 -14 -2 -74 -16 -135
-31 -60 -15 -117 -28 -125 -30 -8 -2 -35 -8 -60 -15 -25 -7 -52 -13 -60 -15
-8 -2 -116 -28 -240 -59 -373 -91 -761 -186 -830 -202 -36 -9 -72 -18 -80 -20
-23 -6 -383 -94 -402 -99 -9 -2 -110 -27 -225 -55 -114 -28 -216 -53 -226 -55
-10 -2 -27 -7 -37 -10 -10 -3 -29 -8 -42 -10 -13 -3 -50 -11 -83 -19 -269 -66
-523 -128 -535 -131 -26 -6 -551 -135 -651 -160 -53 -13 -107 -26 -120 -29
-89 -19 -106 -26 -139 -52 -8 -7 -80 -64 -160 -127 -237 -186 -582 -456 -620
-485 -19 -15 -66 -52 -105 -83 -38 -30 -153 -121 -255 -200 -279 -219 -783
-614 -1275 -1000 -242 -190 -559 -439 -705 -553 -146 -114 -272 -212 -280
-219 -8 -7 -42 -33 -75 -59 -90 -71 -423 -333 -478 -376 -27 -20 -60 -47 -75
-59 -15 -11 -103 -81 -197 -154 -93 -74 -174 -137 -180 -141 -5 -5 -35 -27
-65 -50 -30 -24 -60 -47 -66 -53 -6 -5 -26 -21 -44 -35 -18 -14 -70 -54 -116
-90 -45 -36 -99 -78 -121 -95 -94 -74 -660 -517 -673 -528 -14 -11 -137 -108
-170 -134 -67 -52 -186 -146 -240 -188 -52 -41 -219 -172 -265 -208 -23 -18
-134 -104 -165 -129 -19 -15 -136 -107 -260 -204 -124 -97 -234 -183 -245
-193 -11 -9 -92 -72 -180 -141 -88 -68 -214 -167 -280 -219 -144 -114 -137
-108 -600 -471 -203 -159 -374 -293 -380 -298 -5 -4 -53 -41 -105 -82 -52 -41
-111 -87 -130 -102 -19 -16 -39 -32 -45 -36 -35 -26 -135 -105 -135 -108 0 -5
37 -88 83 -184 24 -52 78 -169 120 -260 97 -214 127 -279 170 -370 29 -63 279
-604 359 -780 14 -30 40 -85 57 -122 17 -38 45 -98 62 -135 17 -38 43 -93 57
-123 13 -30 54 -118 90 -195 100 -217 125 -271 209 -455 14 -30 38 -82 53
-115 26 -54 352 -761 420 -910 15 -33 39 -85 52 -115 14 -30 55 -118 90 -195
71 -153 104 -225 144 -312 14 -32 39 -85 54 -118 16 -33 42 -89 58 -125 16
-36 51 -109 76 -163 25 -53 46 -99 46 -101 0 -2 22 -50 49 -107 27 -57 60
-129 74 -159 13 -30 106 -230 205 -445 99 -214 194 -420 211 -457 17 -38 45
-98 62 -135 17 -38 55 -120 84 -183 65 -142 101 -219 154 -333 22 -48 41 -89
41 -91 0 -2 27 -62 61 -132 33 -71 69 -147 79 -169 41 -90 74 -162 188 -410
66 -143 133 -289 150 -325 40 -86 316 -685 380 -825 28 -60 70 -153 95 -206
25 -52 77 -165 115 -250 39 -84 93 -202 121 -262 28 -59 51 -109 51 -111 0 -2
22 -50 49 -107 27 -57 77 -165 111 -239 34 -74 76 -164 92 -200 17 -36 65
-141 108 -235 131 -286 137 -300 178 -386 22 -46 77 -165 122 -264 45 -99 98
-214 117 -255 20 -41 43 -93 53 -115 10 -22 34 -76 55 -120 20 -44 75 -163
122 -265 47 -102 105 -227 129 -278 24 -51 44 -95 44 -96 0 -2 22 -50 49 -107
40 -86 182 -394 304 -659 14 -30 44 -95 67 -145 23 -49 64 -139 92 -200 28
-60 66 -144 85 -185 71 -151 446 -966 460 -998 10 -24 19 -32 31 -28 20 6 265
66 290 71 19 4 261 63 757 185 176 43 433 106 570 139 239 59 287 71 310 77 6
2 19 5 30 8 40 9 120 28 135 31 8 2 71 17 140 35 69 18 132 33 141 35 8 2 100
24 205 50 104 25 196 48 204 50 8 2 119 29 245 60 127 31 237 58 246 60 9 2
63 15 120 29 146 35 596 145 909 222 146 35 301 74 345 85 44 11 90 22 102 25
13 2 87 20 165 40 79 20 150 37 158 39 8 2 117 28 243 59 125 31 237 58 250
61 12 2 65 15 117 28 74 19 348 86 460 113 8 2 39 10 68 18 29 8 55 15 57 15
12 2 63 14 300 72 138 33 257 62 265 64 8 2 83 20 165 40 83 21 155 38 160 40
6 1 21 5 35 8 33 9 641 158 660 162 8 1 33 8 55 13 22 6 51 13 65 15 14 3 43
10 65 16 41 12 644 159 680 167 11 2 139 33 285 70 146 36 276 68 290 70 14 3
70 17 125 30 55 14 107 27 115 29 29 6 556 135 590 145 19 5 118 29 220 54
102 25 271 66 375 91 105 26 198 49 208 51 9 2 25 6 35 8 18 4 148 36 679 167
177 43 329 79 336 79 8 0 52 30 98 66 46 36 120 93 164 127 44 34 85 66 91 72
7 5 35 28 64 50 28 22 77 60 109 85 31 25 72 57 91 72 19 15 154 121 300 235
146 114 281 220 300 235 19 15 157 123 306 240 149 117 286 224 304 238 18 14
38 30 44 35 6 6 40 33 76 60 36 27 72 55 80 62 8 7 139 109 290 228 151 118
282 221 290 228 8 7 51 40 95 75 113 88 572 448 613 480 51 40 153 119 186
145 15 12 33 27 40 32 6 6 40 33 76 60 36 27 72 55 80 62 8 7 65 51 125 99 61
47 124 96 140 109 17 13 172 135 345 270 173 136 324 254 335 264 11 9 61 47
110 86 50 38 104 80 121 95 39 32 38 31 229 179 88 69 162 128 165 131 3 3 21
17 40 30 19 14 44 32 55 42 11 9 81 65 155 123 74 58 142 111 150 118 8 7 35
28 60 47 25 19 117 91 205 160 146 115 465 365 1165 914 140 109 269 211 286
225 18 14 45 36 60 48 31 23 618 483 744 582 41 33 113 89 160 126 47 36 92
72 100 78 8 7 35 28 60 47 25 19 50 39 56 45 6 5 49 39 97 75 47 36 86 70 87
76 0 11 -31 82 -121 273 -27 57 -49 105 -49 107 0 1 -20 45 -44 96 -68 145
-111 239 -136 293 -12 28 -36 79 -52 115 -17 36 -42 90 -55 120 -14 30 -47
102 -74 158 -27 57 -49 105 -49 107 0 2 -22 50 -49 107 -26 57 -58 126 -71
153 -47 103 -139 303 -184 398 -25 55 -46 100 -46 101 0 2 -23 52 -52 112 -29
60 -53 111 -53 114 -2 7 -22 51 -100 220 -37 80 -79 170 -92 200 -14 30 -41
89 -60 130 -41 88 -259 560 -296 640 -55 120 -146 319 -179 390 -38 80 -71
152 -111 240 -14 30 -133 289 -265 575 -131 286 -251 545 -265 575 -65 143
-83 183 -133 288 -30 63 -54 115 -54 117 0 1 -20 45 -44 96 -24 52 -55 119
-69 149 -34 76 -84 184 -117 255 -15 33 -52 114 -83 180 -30 66 -71 156 -92
200 -71 152 -157 340 -182 395 -85 185 -449 973 -492 1064 -28 59 -51 110 -51
112 0 3 -15 37 -34 77 -61 129 -176 379 -176 382 0 2 -24 54 -54 116 -29 63
-66 141 -81 174 -70 155 -127 279 -135 294 -4 9 -23 48 -40 86 -49 107 -80
173 -115 250 -18 39 -70 151 -115 250 -46 99 -97 212 -115 250 -18 39 -74 160
-125 270 -51 110 -106 229 -122 265 -17 36 -54 117 -83 180 -59 130 -85 187
-161 349 -30 62 -54 115 -54 117 0 2 -21 47 -46 101 -25 54 -54 116 -64 138
-10 22 -33 74 -53 115 -19 41 -128 278 -242 525 -114 248 -248 538 -297 645
-50 107 -104 224 -120 260 -75 163 -265 574 -304 659 -24 51 -44 95 -44 96 0
2 -23 52 -51 112 -28 59 -60 128 -71 153 -116 254 -140 306 -146 311 -4 4 -52
-4 -107 -17z"/>
</g>
</svg>
